<?xml version="1.0" encoding="utf-8"?>
<!-- Generator: Adobe Illustrator 16.0.0, SVG Export Plug-In . SVG Version: 6.00 Build 0)  -->
<!DOCTYPE svg PUBLIC "-//W3C//DTD SVG 1.1//EN" "http://www.w3.org/Graphics/SVG/1.1/DTD/svg11.dtd">
<svg version="1.1" id="Layer_1" xmlns="http://www.w3.org/2000/svg" xmlns:xlink="http://www.w3.org/1999/xlink" x="0px" y="0px"
	 width="555.4px" height="497.3px" viewBox="0 0 555.4 497.3" enable-background="new 0 0 555.4 497.3" xml:space="preserve">
<g>
	<title>dog-colour</title>
	<g id="Layer_2">
		<g id="vector">
			<path fill="#DBD6D2" d="M521.876,49.638c29.399,46.1,8.699,125.8,10.699,193.3c2,67.5,26.601,122.9,12.801,168
				c-13.801,45.1-66.2,80.201-118.9,85.801s-105.3-18.1-176.9-27.9c-71.6-9.699-162.1-5-209.4-43.199
				c-47.3-38.102-51.5-118.9-19.7-176.801c31.8-58,99.7-93.4,157.9-134.7c58.2-41.1,106.9-88.7,170.8-106.1
				C413.176-9.462,492.575,3.337,521.876,49.638z"/>
			<path fill="#F9F6F4" d="M399.876,333.337c-0.101,4.699-12.8,98.5-12.8,98.5l-14.701,10.9h51.2c0,0,9.7-45,43.2-78.1
				c1.9-5-26.8-27.301-26.8-27.301L399.876,333.337z"/>
			<path fill="#F9F6F4" d="M137.275,332.037c-0.7-0.199-1.2-0.5-1.4-0.699c-1.2-1.199-11.4-26.199-11.4-27.9
				c0-1.699,6.4-2.5,13.1-2.5c9.2,0,18.2,0.101,27,0.201l-32.6-49.5c0,0-56.8,11.1-63.7,13.899c0,19,30.9,72.399,53,88.7
				c0.1-2.4,0.7-4.701,1.7-6.701C125.875,341.037,131.676,336.638,137.275,332.037z"/>
			<path fill="#F9F6F4" d="M149.476,341.238c0-5.9-8.6-8-12.2-9.201c-5.7,4.602-11.4,9-14.4,15.5c-1,2-1.6,4.4-1.7,6.701
				c4.1,3,7.9,4.799,11.2,4.799C148.176,359.037,149.476,344.738,149.476,341.238z"/>
			<path fill="#F9F6F4" d="M218.275,170.237c-0.2-0.1-0.4-0.3-0.6-0.4c-0.8,0.2-1.6,0.3-2.4,0.5c1,0,2,0.1,3,0.1V170.237z"/>
			<path fill="#F9F6F4" d="M92.076,186.138c15-5,30.3-8.6,45.8-11.2c-2.9,0-5.9-0.1-8.8-0.1
				C116.176,176.438,103.775,179.638,92.076,186.138z"/>
			<path fill="#F9F6F4" d="M128.976,174.837c2.9,0,5.9,0,8.8,0.1c3-0.5,6-1,9.1-1.4
				C140.875,173.737,134.875,174.138,128.976,174.837z"/>
			<path fill="#7A421C" d="M128.976,174.837c5.9-0.7,11.9-1.1,17.9-1.3c22.6-3.1,45.5-4,68.4-3.2c0.8-0.2,1.6-0.3,2.4-0.5
				c-67.1-42.5-26.6-114.3-98.8-114.3c-33.3,0-51.6,43.1-67.1,43.1c-4,0-30.6-4.7-33.1-4.7s-11.1,3.7-11.1,11.8
				c0,52.3,37.5,63.7,63.6,74.3c10.6-4.5,24.6-3.2,36.8-4.5C114.875,175.038,121.875,174.837,128.976,174.837z"/>
			<path display="none" fill="#F6E3D5" d="M146.875,173.538c-3,0.4-6.1,0.9-9.1,1.4c27.4,0.4,54.9,2.3,80.7-3.9l-0.2-0.6
				c-1,0-2-0.1-3-0.1C193.076,174.737,169.676,172.837,146.875,173.538z"/>
			<path fill="#F9F6F4" d="M295.676,442.437l-33.8-136.1l-43.6-135.6c-34-1-53.5,0.3-80.7,3.9c-16.6-0.2-34.8,1.3-45.8,11.2
				c-1.4,0.8-2.7,1.5-4.1,2.4c1.3-0.8,2.7-1.6,4.1-2.4c-1.4,0.5-2.7,0.9-4.1,1.4c1.4-0.5,2.7-0.9,4.1-1.4
				c11.8-6.5,24.2-9.7,36.9-11.3c-7,0-14,0.2-21,0.7c-12.2,1.4-26.2,0-36.8,4.5c5.4,2.2,10.4,4.4,14.4,6.9
				c1.3,0.8,20.1,28.9,44.6,65.9c15.5,23.5,33.2,50.5,50.2,76.3c35.6,54.301,67.6,103.4,67.6,103.4l-15.2,10.199H295.676z"/>
			<path fill="#F9F6F4" d="M215.275,170.337c-22.9-0.8-45.8,0.1-68.4,3.2C169.676,172.837,193.076,174.737,215.275,170.337z"/>
			<path fill="#7A421C" d="M423.976,293.538c-11.1-7.601-5.4-3.601,1,4c18.5,14.2,39.3,17.3,60.6,19.999
				c-19.899-10.398-37.899-24.999-53.6-40.999c-15.5-16.101-20.5-37.4-24.1-59.3c0.399,23.9,3.6,46.8,10.1,70.3
				C418.976,290.538,419.976,292.538,423.976,293.538z"/>
			<path fill="#7A421C" d="M523.403,323.221c-14.645-4.505-30.946-7.118-45.705-9.135c20.277,11.265,42.783,18.802,65.877,19.751
				C535.689,331.347,531.177,325.239,523.403,323.221z"/>
			<path fill="#7A421C" d="M452.775,194.337c-4.8,0-16.6,3.7-47.8,5.3c1,5.8,1.9,11.7,2.9,17.6c-0.101-5.5-0.101-11,0.1-16.7
				c-0.2,5.6-0.2,11.2-0.1,16.7c3.699,21.9,1.491,51.247,16.991,67.247c15.6,16.101,40.809,22.654,60.708,33.053
				c13.101,1.701,26.4,3.102,39.4,7c6.9,1.701,11.6,7.201,18.6,9.301c1.5,0.1,3,0.1,4.601,0.1
				C527.275,259.238,467.575,194.337,452.775,194.337z"/>
			<path fill="#F9F6F4" d="M417.976,287.538c-6.5-23.601-9.7-46.5-10.1-70.3c-1-5.9-1.9-11.7-2.9-17.6c-8.4,0.4-18.2,0.7-29.7,0.7
				c-81.8,0-128.8-12.5-157.1-30.1l43.8,136.401c193.1,18.898,248.3,81.699,248.3,120.199c0,3.199-15.2,13.6-15.2,16h56.2
				c1-3,4-29.199,4-59.301c0-16.6-2.7-33.299-7.2-49.5c-1.5,0-3.1,0-4.6-0.1c1.1,0.301,2.2,0.6,3.4,0.701
				c-1.2-0.102-2.4-0.4-3.4-0.701c-20.5-0.699-40-6.799-58-16.299c-21.2-2.701-42-5.801-60.6-20"/>
			<path fill="#663515" d="M124.676,82.837c6.8-2.1,44.8-3.7,62.8,4.9c0,36.2-9.4,85.6-39.9,82.4
				C121.176,167.237,107.476,124.837,124.676,82.837z"/>
			<path fill="#F05670" d="M60.076,145.438c3,5.5,27.1,40.4,43.1,34.2c10.8-4.1-3-37.1-9.2-44.6
				C90.076,137.038,70.976,144.337,60.076,145.438z"/>
			<path fill="#010101" d="M79.375,141.138c1.6,2.9,4.1,7.4,8.2,13.5"/>
			<path fill="#7A421C" stroke="#000000" stroke-miterlimit="10" d="M9.875,126.438c11.3,19.5,47.1,28.6,87.6,6.7"/>
			<ellipse fill="#383838" cx="20.676" cy="94.938" rx="8.1" ry="3.6"/>
			<ellipse fill="#383838" cx="88.576" cy="90.838" rx="4.1" ry="7.7"/>
			<path fill="#7A421C" d="M469.876,180.938c-8.4,10-19.2,14.9-22,14.9c-4.7,0,19.899,28.3,31.199,28.3
				c17.101,0,35.601-17.1,47.801-36.1C514.275,176.737,489.476,180.638,469.876,180.938z"/>
			<path fill="#F9F6F4" d="M480.476,83.837c-34.2,0-42.8,34-42.8,37.2c0,3.2,1.399,7.7,2.2,7.7c0.8,0,5.399-2.4,8.6-2.4
				c29.5,0,32.3,22.4,32.3,26c0,12.1-4.8,21.7-10.8,28.7c19.5-0.3,44.3-4.3,57,7.1c8.4-13,13.8-27,13.8-36.7
				C540.676,101.938,495.676,83.837,480.476,83.837z"/>
		</g>
	</g>
</g>
</svg>
