<?xml version="1.0" encoding="utf-8"?>
<!-- Generator: Adobe Illustrator 16.0.0, SVG Export Plug-In . SVG Version: 6.00 Build 0)  -->
<!DOCTYPE svg PUBLIC "-//W3C//DTD SVG 1.1//EN" "http://www.w3.org/Graphics/SVG/1.1/DTD/svg11.dtd">
<svg version="1.1" id="Layer_1" xmlns="http://www.w3.org/2000/svg" xmlns:xlink="http://www.w3.org/1999/xlink" x="0px" y="0px"
	 width="200px" height="200px" viewBox="0 0 200 200" enable-background="new 0 0 200 200" xml:space="preserve">
<g>
	<g>
		<path fill="#804D1F" d="M166.6,66.7c-14.5-43.1-62.7-42-66.5-41.8c-3.8-0.2-52-1.3-66.5,41.8c-15.1,44.8,21.4,66.2,21.4,77.9
			c0,11.7,9.3,30.3,44.9,30.5v0c0.1,0,0.2,0,0.2,0c0.1,0,0.2,0,0.2,0v0c35.5-0.2,44.9-18.8,44.9-30.5
			C145.2,132.9,181.7,111.6,166.6,66.7z"/>
		<g>
			<g>
				<g>
					<path fill="#010101" d="M136.6,94.3c0,5.2-2.7,9.4-6,9.4s-6-4.2-6-9.4c0-5.2,2.7-9.4,6-9.4S136.6,89.1,136.6,94.3z"/>
					<path fill="#F1EDEC" d="M131.8,88.7c0,0.9-1,1.7-2.2,1.7c-1.2,0-2.2-0.7-2.2-1.7c0-0.9,1-1.7,2.2-1.7
						C130.8,87,131.8,87.7,131.8,88.7z"/>
				</g>
				<g>
					<path fill="#010101" d="M75.5,94.3c0,5.2-2.7,9.4-6,9.4c-3.3,0-6-4.2-6-9.4c0-5.2,2.7-9.4,6-9.4C72.9,84.8,75.5,89.1,75.5,94.3
						z"/>
					<path fill="#F1EDEC" d="M70.8,88.7c0,0.9-1,1.7-2.2,1.7c-1.2,0-2.2-0.7-2.2-1.7c0-0.9,1-1.7,2.2-1.7
						C69.8,87,70.8,87.7,70.8,88.7z"/>
				</g>
			</g>
			<g>
				<path fill="#010101" d="M99,127.9c0,0-16.7-0.5-20,8.8c0,0,0.9,17.2,20,17.2s20-17.2,20-17.2C115.7,127.5,99,127.9,99,127.9z"/>
				<path fill="#010101" d="M127.1,151c-0.1,0.6-2.2,13.6-13.4,13.6c-10.3,0-13-11-13.5-13.3c0,0,0,0,0,0h0c0-0.2-0.1-0.3-0.1-0.4
					L99,151l-1.2-0.2c0,0,0,0.2-0.1,0.4h0c0,0,0,0,0,0c-0.5,2.3-3.2,13.3-13.5,13.3c-11.2,0-13.4-13.1-13.4-13.6l-2.5,0.4
					c0,0.2,2.5,15.7,15.9,15.7c8.8,0,12.9-6.7,14.7-11.4c1.8,4.7,6,11.4,14.7,11.4c13.4,0,15.9-15.6,15.9-15.7L127.1,151z"/>
			</g>
		</g>
	</g>
	<g>
		<path fill="#603A15" d="M143.4,36.6c0,0,29.1,15.1,42.9,26.8c13.7,11.8,15,30.4,7.5,39c-7.5,8.6-18,17.8-19.3,27.9
			c-1.3,10.1-8.8,6.2-8.8-3.6S169.8,62.3,143.4,36.6z"/>
		<path fill="#603A15" d="M56.6,36.6c0,0-29.2,15.1-42.9,26.8c-13.7,11.8-15,30.4-7.5,39c7.5,8.6,18,17.8,19.3,27.9
			c1.3,10.1,8.8,6.2,8.8-3.6S30.2,62.3,56.6,36.6z"/>
	</g>
</g>
</svg>
