{
  "accessors": [
    {
      "bufferView": 2,
      "componentType": 5126,
      "count": 1028,
      "max": [
        1.4796320199966431,
        0.82601499557495117,
        2.8520350456237793
      ],
      "min": [
        -0.92494100332260132,
        -0.62602299451828003,
        1.7577470541000366
      ],
      "type": "VEC3"
    },
    {
      "bufferView": 2,
      "byteOffset": 12336,
      "componentType": 5126,
      "count": 1028,
      "max": [
        0.99789631366729736,
        0.99725806713104248,
        0.99923074245452881
      ],
      "min": [
        -0.99700653553009033,
        -0.99854785203933716,
        -0.99976891279220581
      ],
      "type": "VEC3"
    },
    {
      "bufferView": 1,
      "componentType": 5126,
      "count": 1028,
      "max": [
        0.20044100284576416,
        0.99765300750732422
      ],
      "min": [
        0.0018090000376105309,
        0.79923897981643677
      ],
      "type": "VEC2"
    },
    {
      "bufferView": 0,
      "componentType": 5125,
      "count": 5760,
      "max": [
        1027
      ],
      "min": [
        0
      ],
      "type": "SCALAR"
    },
    {
      "bufferView": 2,
      "byteOffset": 24672,
      "componentType": 5126,
      "count": 34193,
      "max": [
        6.242225170135498,
        4.5619139671325684,
        5.0805940628051758
      ],
      "min": [
        -5.7273898124694824,
        -3.7111330032348633,
        -5.9725399017333984
      ],
      "type": "VEC3"
    },
    {
      "bufferView": 2,
      "byteOffset": 434988,
      "componentType": 5126,
      "count": 34193,
      "max": [
        0.9999157190322876,
        0.99993669986724854,
        0.99960786104202271
      ],
      "min": [
        -0.99983412027359009,
        -0.99988508224487305,
        -0.99978417158126831
      ],
      "type": "VEC3"
    },
    {
      "bufferView": 3,
      "componentType": 5126,
      "count": 34193,
      "max": [
        0.99995434284210205,
        0.99991565942764282,
        0.99996650218963623,
        1
      ],
      "min": [
        -0.9999692440032959,
        -0.99994510412216187,
        -0.9999922513961792,
        -1
      ],
      "type": "VEC4"
    },
    {
      "bufferView": 1,
      "byteOffset": 8224,
      "componentType": 5126,
      "count": 34193,
      "max": [
        0.98964399099349976,
        0.99912101030349731
      ],
      "min": [
        0.01929200068116188,
        -7.9999999798019417e-06
      ],
      "type": "VEC2"
    },
    {
      "bufferView": 0,
      "byteOffset": 23040,
      "componentType": 5125,
      "count": 154500,
      "max": [
        34192
      ],
      "min": [
        0
      ],
      "type": "SCALAR"
    }
  ],
  "asset": {
    "extras": {
      "author": "NodeSpaghetti (https://sketchfab.com/NodeSpaghetti)",
      "license": "CC-BY-4.0 (http://creativecommons.org/licenses/by/4.0/)",
      "source": "https://sketchfab.com/3d-models/ophelia-the-octopus-e3140a8c501545a88f8d9d9b13c4ebdf",
      "title": "Ophelia the Octopus"
    },
    "generator": "Sketchfab-8.72.3",
    "version": "2.0"
  },
  "bufferViews": [
    {
      "buffer": 0,
      "byteLength": 641040,
      "byteOffset": 0,
      "name": "floatBufferViews",
      "target": 34963
    },
    {
      "buffer": 0,
      "byteLength": 281768,
      "byteOffset": 641040,
      "byteStride": 8,
      "name": "floatBufferViews",
      "target": 34962
    },
    {
      "buffer": 0,
      "byteLength": 845304,
      "byteOffset": 922808,
      "byteStride": 12,
      "name": "floatBufferViews",
      "target": 34962
    },
    {
      "buffer": 0,
      "byteLength": 547088,
      "byteOffset": 1768112,
      "byteStride": 16,
      "name": "floatBufferViews",
      "target": 34962
    }
  ],
  "buffers": [
    {
      "byteLength": 2315200,
      "uri": "scene.bin"
    }
  ],
  "images": [
    {
      "uri": "textures/octopus_eye.001_baseColor.jpeg"
    },
    {
      "uri": "textures/octopus_skin_new.001_normal.png"
    }
  ],
  "materials": [
    {
      "doubleSided": true,
      "name": "octopus_eye.001",
      "pbrMetallicRoughness": {
        "baseColorFactor": [
          1,
          1,
          1,
          1
        ],
        "baseColorTexture": {
          "index": 0,
          "texCoord": 0
        },
        "metallicFactor": 0,
        "roughnessFactor": 0.59999999999999998
      }
    },
    {
      "doubleSided": true,
      "emissiveFactor": [
        1,
        1,
        1
      ],
      "emissiveTexture": {
        "index": 0,
        "texCoord": 0
      },
      "name": "octopus_skin_new.001",
      "normalTexture": {
        "index": 1,
        "scale": 1,
        "texCoord": 0
      },
      "pbrMetallicRoughness": {
        "baseColorFactor": [
          0.21650604388680875,
          0.21650604388680875,
          0.21650604388680875,
          1
        ],
        "baseColorTexture": {
          "index": 0,
          "texCoord": 0
        },
        "metallicFactor": 0.069236964870811643,
        "roughnessFactor": 0.075373176496478192
      }
    }
  ],
  "meshes": [
    {
      "primitives": [
        {
          "attributes": {
            "NORMAL": 1,
            "POSITION": 0,
            "TEXCOORD_0": 2
          },
          "indices": 3,
          "material": 0,
          "mode": 4
        }
      ]
    },
    {
      "primitives": [
        {
          "attributes": {
            "NORMAL": 5,
            "POSITION": 4,
            "TANGENT": 6,
            "TEXCOORD_0": 7
          },
          "indices": 8,
          "material": 1,
          "mode": 4
        }
      ]
    }
  ],
  "nodes": [
    {
      "children": [
        1
      ],
      "name": "RootNode (gltf orientation matrix)",
      "rotation": [
        -0.70710678118654746,
        -0,
        -0,
        0.70710678118654757
      ]
    },
    {
      "children": [
        2
      ],
      "name": "RootNode (model correction matrix)"
    },
    {
      "children": [
        3,
        4
      ],
      "name": "sketchfab_up_ophelia1.obj.cleaner.materialmerger.gles"
    },
    {
      "mesh": 0,
      "name": ""
    },
    {
      "mesh": 1,
      "name": ""
    }
  ],
  "samplers": [
    {
      "magFilter": 9729,
      "minFilter": 9987,
      "wrapS": 10497,
      "wrapT": 10497
    }
  ],
  "scene": 0,
  "scenes": [
    {
      "name": "OSG_Scene",
      "nodes": [
        0
      ]
    }
  ],
  "textures": [
    {
      "sampler": 0,
      "source": 0
    },
    {
      "sampler": 0,
      "source": 1
    }
  ]
}

