{
   "accessors" : [
      {
         "bufferView" : 2,
         "byteOffset" : 0,
         "componentType" : 5126,
         "count" : 6304,
         "max" : [ 1, 1, 1, 1 ],
         "min" : [ 0, 0.006584956776350737, 0.006584956776350737, 1 ],
         "name" : "accessor_color_m0-PolyPaper21_-810026",
         "type" : "VEC4"
      },
      {
         "bufferView" : 2,
         "byteOffset" : 100864,
         "componentType" : 5126,
         "count" : 9990,
         "max" : [ 1, 1, 1, 1 ],
         "min" : [ 0, 0.006584956776350737, 0.006584956776350737, 1 ],
         "name" : "accessor_color_m1-PolyPaper10_-810020",
         "type" : "VEC4"
      },
      {
         "bufferView" : 2,
         "byteOffset" : 260704,
         "componentType" : 5126,
         "count" : 9942,
         "max" : [ 1, 1, 1, 1 ],
         "min" : [ 0, 0.006584956776350737, 0, 1 ],
         "name" : "accessor_color_m2-PolyPaper21_-810018",
         "type" : "VEC4"
      },
      {
         "bufferView" : 2,
         "byteOffset" : 419776,
         "componentType" : 5126,
         "count" : 16,
         "max" : [ 0.6800203323364258, 0.6800203323364258, 0.6800203323364258, 0.2509804 ],
         "min" : [ 0.6800203323364258, 0.6800203323364258, 0.6800203323364258, 0.2509804 ],
         "name" : "accessor_color_m3-PolyGlass24_-703742",
         "type" : "VEC4"
      },
      {
         "bufferView" : 0,
         "byteOffset" : 0,
         "componentType" : 5123,
         "count" : 9168,
         "max" : [ 6303 ],
         "min" : [ 0 ],
         "name" : "accessor_indices_0_m0-PolyPaper21_-810026",
         "type" : "SCALAR"
      },
      {
         "bufferView" : 0,
         "byteOffset" : 18336,
         "componentType" : 5123,
         "count" : 14862,
         "max" : [ 9989 ],
         "min" : [ 0 ],
         "name" : "accessor_indices_0_m1-PolyPaper10_-810020",
         "type" : "SCALAR"
      },
      {
         "bufferView" : 0,
         "byteOffset" : 48060,
         "componentType" : 5123,
         "count" : 14622,
         "max" : [ 9941 ],
         "min" : [ 0 ],
         "name" : "accessor_indices_0_m2-PolyPaper21_-810018",
         "type" : "SCALAR"
      },
      {
         "bufferView" : 0,
         "byteOffset" : 77304,
         "componentType" : 5123,
         "count" : 18,
         "max" : [ 15 ],
         "min" : [ 0 ],
         "name" : "accessor_indices_0_m3-PolyGlass24_-703742",
         "type" : "SCALAR"
      },
      {
         "bufferView" : 1,
         "byteOffset" : 75648,
         "componentType" : 5126,
         "count" : 6304,
         "max" : [ 1, 1, 1 ],
         "min" : [ -1, -1, -1 ],
         "name" : "accessor_normal_m0-PolyPaper21_-810026",
         "type" : "VEC3"
      },
      {
         "bufferView" : 1,
         "byteOffset" : 271176,
         "componentType" : 5126,
         "count" : 9990,
         "max" : [ 1, 1, 1 ],
         "min" : [ -1, -1, -1 ],
         "name" : "accessor_normal_m1-PolyPaper10_-810020",
         "type" : "VEC3"
      },
      {
         "bufferView" : 1,
         "byteOffset" : 510360,
         "componentType" : 5126,
         "count" : 9942,
         "max" : [ 1, 1, 1 ],
         "min" : [ -1, -1, -1 ],
         "name" : "accessor_normal_m2-PolyPaper21_-810018",
         "type" : "VEC3"
      },
      {
         "bufferView" : 1,
         "byteOffset" : 629856,
         "componentType" : 5126,
         "count" : 16,
         "max" : [ 0.8944275, 0.8944275, 0.4472131 ],
         "min" : [ -0.8944274, -0.8944275, -1 ],
         "name" : "accessor_normal_m3-PolyGlass24_-703742",
         "type" : "VEC3"
      },
      {
         "bufferView" : 1,
         "byteOffset" : 0,
         "componentType" : 5126,
         "count" : 6304,
         "max" : [ 2.154542, 2.019976, 1.91358 ],
         "min" : [ 0.6000234, 0.8503255, -0.2499604 ],
         "name" : "accessor_position_m0-PolyPaper21_-810026",
         "type" : "VEC3"
      },
      {
         "bufferView" : 1,
         "byteOffset" : 151296,
         "componentType" : 5126,
         "count" : 9990,
         "max" : [ 2.214988, 2.160006, 1.9529 ],
         "min" : [ 0.5400194, 0.8695083, -0.169968 ],
         "name" : "accessor_position_m1-PolyPaper10_-810020",
         "type" : "VEC3"
      },
      {
         "bufferView" : 1,
         "byteOffset" : 391056,
         "componentType" : 5126,
         "count" : 9942,
         "max" : [ 2.120008, 1.976707, 1.914322 ],
         "min" : [ 0.5000135999999999, 0.8608814, -0.1400158 ],
         "name" : "accessor_position_m2-PolyPaper21_-810018",
         "type" : "VEC3"
      },
      {
         "bufferView" : 1,
         "byteOffset" : 629664,
         "componentType" : 5126,
         "count" : 16,
         "max" : [ 1.56402, 1.786002, 0.4400265 ],
         "min" : [ 1.51602, 1.738002, 0.3920266 ],
         "name" : "accessor_position_m3-PolyGlass24_-703742",
         "type" : "VEC3"
      }
   ],
   "asset" : {
      "copyright" : "Unknown",
      "extras" : {
         "GOOGLE_processor_version" : 294144208
      },
      "generator" : "glTF 1-to-2 Upgrader for Google Blocks",
      "version" : "2.0"
   },
   "bufferViews" : [
      {
         "buffer" : 0,
         "byteLength" : 77340,
         "byteOffset" : 0,
         "name" : "ushortBufferView",
         "target" : 34963
      },
      {
         "buffer" : 0,
         "byteLength" : 630048,
         "byteOffset" : 77340,
         "byteStride" : 12,
         "name" : "vec3BufferView",
         "target" : 34962
      },
      {
         "buffer" : 0,
         "byteLength" : 420032,
         "byteOffset" : 707388,
         "byteStride" : 16,
         "name" : "vec4BufferView",
         "target" : 34962
      }
   ],
   "buffers" : [
      {
         "byteLength" : 1127420,
         "name" : "model",
         "uri" : "model.bin"
      }
   ],
   "cameras" : [
      {
         "perspective" : {
            "yfov" : 0.7853981633974483,
            "znear" : 0.1000000014901161
         },
         "type" : "perspective"
      }
   ],
   "extensions" : {
      "KHR_lights_punctual" : {
         "lights" : [
            {
               "color" : [ 1, 0.9333333333333333, 0.8666666666666667 ],
               "intensity" : 0.25,
               "name" : "headLight",
               "type" : "directional"
            },
            {
               "color" : [ 1, 0.9333333333333333, 0.8666666666666667 ],
               "intensity" : 0.324999988079071,
               "name" : "keyLight",
               "type" : "directional"
            }
         ]
      }
   },
   "extensionsUsed" : [ "GOOGLE_backgrounds", "GOOGLE_camera_settings", "KHR_lights_punctual" ],
   "extras" : {
      "GOOGLE_initial_camera_motion" : {
         "motionPath" : "FULL_ROTATION"
      },
      "GOOGLE_lighting_rig" : {
         "disableShadows" : false
      }
   },
   "materials" : [
      {
         "alphaMode" : "OPAQUE",
         "doubleSided" : false,
         "name" : "BlocksPaper",
         "pbrMetallicRoughness" : {
            "baseColorFactor" : [ 1, 1, 1, 1 ],
            "metallicFactor" : 0,
            "roughnessFactor" : 0.6
         }
      },
      {
         "alphaMode" : "BLEND",
         "doubleSided" : false,
         "name" : "BlocksGlass",
         "pbrMetallicRoughness" : {
            "baseColorFactor" : [ 0.2, 0.2, 1, 0.3 ],
            "metallicFactor" : 1,
            "roughnessFactor" : 0.4
         }
      },
      {
         "alphaMode" : "OPAQUE",
         "doubleSided" : true,
         "name" : "BlocksGem",
         "pbrMetallicRoughness" : {
            "baseColorFactor" : [ 1, 0.4, 1, 1 ],
            "metallicFactor" : 0,
            "roughnessFactor" : 0.1
         }
      }
   ],
   "meshes" : [
      {
         "name" : "mesh_m0-PolyPaper21_-810026",
         "primitives" : [
            {
               "attributes" : {
                  "COLOR_0" : 0,
                  "NORMAL" : 8,
                  "POSITION" : 12
               },
               "indices" : 4,
               "material" : 0,
               "mode" : 4
            }
         ]
      },
      {
         "name" : "mesh_m1-PolyPaper10_-810020",
         "primitives" : [
            {
               "attributes" : {
                  "COLOR_0" : 1,
                  "NORMAL" : 9,
                  "POSITION" : 13
               },
               "indices" : 5,
               "material" : 0,
               "mode" : 4
            }
         ]
      },
      {
         "name" : "mesh_m2-PolyPaper21_-810018",
         "primitives" : [
            {
               "attributes" : {
                  "COLOR_0" : 2,
                  "NORMAL" : 10,
                  "POSITION" : 14
               },
               "indices" : 6,
               "material" : 0,
               "mode" : 4
            }
         ]
      },
      {
         "name" : "mesh_m3-PolyGlass24_-703742",
         "primitives" : [
            {
               "attributes" : {
                  "COLOR_0" : 3,
                  "NORMAL" : 11,
                  "POSITION" : 15
               },
               "indices" : 7,
               "material" : 1,
               "mode" : 4
            }
         ]
      }
   ],
   "nodes" : [
      {
         "mesh" : 2,
         "name" : "node_MeshObject-1017531776-PolyPaper21"
      },
      {
         "mesh" : 3,
         "name" : "node_MeshObject-885585472-PolyGlass24"
      },
      {
         "mesh" : 1,
         "name" : "node_MeshObject1610884032-PolyPaper10"
      },
      {
         "mesh" : 0,
         "name" : "node_MeshObject2129604096-PolyPaper21"
      },
      {
         "children" : [ 5 ]
      },
      {
         "children" : [ 6 ],
         "extras" : {
            "isTransformNode" : 1
         },
         "translation" : [ 1.339268102040405, 1.466954725599504, 0.7776765887771756 ]
      },
      {
         "children" : [ 3, 2, 0, 1 ],
         "translation" : [ -1.339268102040405, -1.466954725599504, -0.7776765887771756 ]
      },
      {
         "camera" : 0,
         "children" : [ 8 ],
         "rotation" : [
            -0.3412336452184882,
            0.3475571834936232,
            0.1375099366702257,
            0.8624700695617404
         ],
         "translation" : [ 2.874150629744558, 3.45494621554972, 2.457495610521598 ]
      },
      {
         "extensions" : {
            "KHR_lights_punctual" : {
               "light" : 0
            }
         },
         "extras" : {
            "isHeadLight" : 1
         },
         "name" : "headLightNode",
         "translation" : [ -1.50262771233119, 0.7513138561655949, 0.7513138561655949 ]
      },
      {
         "extensions" : {
            "KHR_lights_punctual" : {
               "light" : 1
            }
         },
         "extras" : {
            "isKeyLight" : 1
         },
         "name" : "keyLightNode",
         "rotation" : [ -0.7505326882858236, -0.3752663441429118, 0, 0.5439447166468927 ],
         "scale" : [ 0, 0, 1.517653989454502 ],
         "translation" : [ -0.1652349889569282, 4.335243242051381, -0.6170494150637154 ]
      }
   ],
   "scene" : 0,
   "scenes" : [
      {
         "extensions" : {
            "GOOGLE_backgrounds" : {
               "color" : [ 0.007843137254901961, 0.5333333333333333, 0.8196078431372549 ]
            },
            "GOOGLE_camera_settings" : {
               "pivot" : [ 0, 0, 0 ]
            }
         },
         "extras" : {
            "GOOGLE_camera_index" : {
               "cameraIndex" : 0,
               "nodeIndex" : 7
            },
            "GOOGLE_geometry_data" : {
               "stats" : {
                  "centroid" : [ 1.352419000497573, 1.299935263142378, 0.9006045743907862 ],
                  "radius" : 1.50262771233119,
                  "stdev" : 0.8378458840842726
               },
               "visualCenterPoint" : [ 1.339268102040405, 1.466954725599504, 0.7776765887771756 ]
            },
            "GOOGLE_hemi_light" : {
               "groundColor" : [ 0.007843137254901961, 0.5333333333333333, 0.8196078431372549 ]
            }
         },
         "name" : "defaultScene",
         "nodes" : [ 4, 7, 9 ]
      }
   ]
}
